{
  "source": "C:\\Users\\Peter\\Desktop\\stuff\\MIUN\\quantitative_research\\video_compression\\videos\\BVI-HD\\BVI-HD_CDVL_videos\\ORIG\\RockWater_1920x1080_30fps.mp4",
  "output": "C:\\Users\\Peter\\Desktop\\stuff\\MIUN\\quantitative_research\\video_compression\\compressed_videos\\BVI-HD\\av1\\1\\RockWater_1920x1080_30fps_av1.mkv",
  "codec": "av1",
  "ok": "Input #0, mov,mp4,m4a,3gp,3g2,mj2, from 'C:\\Users\\Peter\\Desktop\\stuff\\MIUN\\quantitative_research\\video_compression\\videos\\BVI-HD\\BVI-HD_CDVL_videos\\ORIG\\RockWater_1920x1080_30fps.mp4':\n  Metadata:\n    major_brand     : isom\n    minor_version   : 512\n    compatible_brands: isomiso2avc1mp41\n    encoder         : Lavf54.28.101\n  Duration: 00:00:05.00, start: 0.000000, bitrate: 245943 kb/s\n  Stream #0:0[0x1](und): Video: h264 (High 4:4:4 Predictive) (avc1 / 0x31637661), yuv420p(progressive), 1920x1080, 245940 kb/s, 30 fps, 30 tbr, 30 tbn (default)\n    Metadata:\n      handler_name    : VideoHandler\n      vendor_id       : [0][0][0][0]\n[out#0/matroska @ 0000021e1c541200] Codec AVOption b:a (set bitrate (in bits/s)) has not been used for any stream. The most likely reason is either wrong type (e.g. a video option with no video streams) or that it is a private option of some decoder which was not actually used for any stream.\nStream mapping:\n  Stream #0:0 -> #0:0 (h264 (native) -> av1 (libsvtav1))\nPress [q] to stop, [?] for help\nSvt[info]: -------------------------------------------\nSvt[info]: SVT [version]:\tSVT-AV1 Encoder Lib v3.1.0-19-g6ecfe8ec\nSvt[info]: SVT [build]  :\tGCC 15.2.0\t 64 bit\nSvt[info]: LIB Build date: Aug 17 2025 11:37:13\nSvt[info]: -------------------------------------------\nSvt[info]: Level of Parallelism: 5\nSvt[info]: Number of PPCS 93\nSvt[info]: [asm level on system : up to avx2]\nSvt[info]: [asm level selected : up to avx2]\nSvt[info]: -------------------------------------------\nSvt[info]: SVT [config]: main profile\ttier (auto)\tlevel (auto)\nSvt[info]: SVT [config]: width / height / fps numerator / fps denominator \t\t: 1920 / 1080 / 30 / 1\nSvt[info]: SVT [config]: bit-depth / color format \t\t\t\t\t: 8 / YUV420\nSvt[info]: SVT [config]: preset / tune / pred struct \t\t\t\t\t: 4 / PSNR / random access\nSvt[info]: SVT [config]: gop size / mini-gop size / key-frame type \t\t\t: 161 / 16 / key frame\nSvt[info]: SVT [config]: BRC mode / target bitrate (kbps)\t\t\t\t: VBR / 1000 \nSvt[info]: SVT [config]: AQ mode / Variance Boost \t\t\t\t\t: 2 / 0\nSvt[info]: SVT [config]: sharpness / luminance-based QP bias \t\t\t\t: 0 / 0\nSvt[info]: SVT [config]: QP scale compress strength \t\t\t\t\t: 0\nSvt[info]: -------------------------------------------\nOutput #0, matroska, to 'C:\\Users\\Peter\\Desktop\\stuff\\MIUN\\quantitative_research\\video_compression\\compressed_videos\\BVI-HD\\av1\\1\\RockWater_1920x1080_30fps_av1.mkv':\n  Metadata:\n    major_brand     : isom\n    minor_version   : 512\n    compatible_brands: isomiso2avc1mp41\n    encoder         : Lavf62.3.100\n  Stream #0:0(und): Video: av1 (AV01 / 0x31305641), yuv420p(tv, progressive), 1920x1080, q=2-31, 1000 kb/s, 30 fps, 1k tbn (default)\n    Metadata:\n      encoder         : Lavc62.11.100 libsvtav1\n      handler_name    : VideoHandler\n      vendor_id       : [0][0][0][0]\n    Side data:\n      cpb: bitrate max/min/avg: 0/0/1000000 buffer size: 1000000 vbv_delay: N/A\nframe=    0 fps=0.0 q=0.0 size=       0KiB time=N/A bitrate=N/A speed=N/A elapsed=0:00:01.61    \nframe=    0 fps=0.0 q=0.0 size=       0KiB time=N/A bitrate=N/A speed=N/A elapsed=0:00:02.43    \nframe=    0 fps=0.0 q=0.0 size=       0KiB time=N/A bitrate=N/A speed=N/A elapsed=0:00:03.07    \nframe=    0 fps=0.0 q=0.0 size=       0KiB time=N/A bitrate=N/A speed=N/A elapsed=0:00:03.63    \nframe=    0 fps=0.0 q=0.0 size=       0KiB time=N/A bitrate=N/A speed=N/A elapsed=0:00:04.31    \nframe=    0 fps=0.0 q=0.0 size=       0KiB time=N/A bitrate=N/A speed=N/A elapsed=0:00:04.93    \nframe=    1 fps=0.2 q=40.0 size=       1KiB time=00:00:00.00 bitrate=N/A speed=   0x elapsed=0:00:05.48    \nframe=    1 fps=0.2 q=40.0 size=       1KiB time=00:00:00.00 bitrate=N/A speed=   0x elapsed=0:00:06.06    \nframe=    1 fps=0.1 q=40.0 size=       1KiB time=00:00:00.00 bitrate=N/A speed=   0x elapsed=0:00:06.68    \nframe=    4 fps=0.6 q=58.0 size=       1KiB time=00:00:00.10 bitrate=  57.0kbits/s speed=0.0138x elapsed=0:00:07.26    \nframe=    6 fps=0.8 q=58.0 size=       1KiB time=00:00:00.16 bitrate=  34.2kbits/s speed=0.0213x elapsed=0:00:07.83    \nframe=    8 fps=0.9 q=57.0 size=       1KiB time=00:00:00.23 bitrate=  24.4kbits/s speed=0.0277x elapsed=0:00:08.42    \nframe=    9 fps=1.0 q=50.0 size=       1KiB time=00:00:00.26 bitrate=  21.4kbits/s speed=0.0294x elapsed=0:00:09.08    \nframe=   12 fps=1.2 q=55.0 size=       1KiB time=00:00:00.36 bitrate=  15.6kbits/s speed=0.0378x elapsed=0:00:09.70    \nframe=   18 fps=1.7 q=58.0 size=       1KiB time=00:00:00.56 bitrate=  10.1kbits/s speed=0.055x elapsed=0:00:10.29    \nframe=   20 fps=1.8 q=58.0 size=       1KiB time=00:00:00.63 bitrate=   9.0kbits/s speed=0.0585x elapsed=0:00:10.81    \nframe=   22 fps=1.9 q=57.0 size=       1KiB time=00:00:00.70 bitrate=   8.1kbits/s speed=0.0617x elapsed=0:00:11.34    \nframe=   24 fps=2.0 q=58.0 size=       1KiB time=00:00:00.73 bitrate=   7.8kbits/s speed=0.0618x elapsed=0:00:11.85    \nframe=   28 fps=2.2 q=59.0 size=       1KiB time=00:00:00.90 bitrate=   6.3kbits/s speed=0.0722x elapsed=0:00:12.46    \nframe=   33 fps=2.5 q=41.0 size=       1KiB time=00:00:01.06 bitrate=   5.3kbits/s speed=0.082x elapsed=0:00:13.00    \nframe=   36 fps=2.7 q=59.0 size=       1KiB time=00:00:01.16 bitrate=   4.9kbits/s speed=0.0862x elapsed=0:00:13.52    \nframe=   39 fps=2.8 q=56.0 size=       1KiB time=00:00:01.26 bitrate=   4.5kbits/s speed=0.0898x elapsed=0:00:14.09    \nframe=   42 fps=2.8 q=59.0 size=       1KiB time=00:00:01.36 bitrate=   4.2kbits/s speed=0.0921x elapsed=0:00:14.84    \nframe=   46 fps=3.0 q=62.0 size=       1KiB time=00:00:01.46 bitrate=   3.9kbits/s speed=0.0952x elapsed=0:00:15.39    \nframe=   51 fps=3.2 q=60.0 size=       1KiB time=00:00:01.66 bitrate=   3.4kbits/s speed=0.104x elapsed=0:00:16.05    \nframe=   57 fps=3.4 q=51.0 size=       1KiB time=00:00:01.86 bitrate=   3.1kbits/s speed=0.112x elapsed=0:00:16.62    \nframe=   61 fps=3.5 q=56.0 size=       1KiB time=00:00:01.93 bitrate=   3.0kbits/s speed=0.112x elapsed=0:00:17.27    \nframe=   65 fps=3.6 q=40.0 size=       1KiB time=00:00:02.06 bitrate=   2.8kbits/s speed=0.115x elapsed=0:00:17.98    \nframe=   69 fps=3.7 q=59.0 size=       1KiB time=00:00:02.26 bitrate=   2.5kbits/s speed=0.121x elapsed=0:00:18.68    \nframe=   73 fps=3.8 q=55.0 size=       1KiB time=00:00:02.40 bitrate=   2.4kbits/s speed=0.125x elapsed=0:00:19.24    \nframe=   77 fps=3.9 q=56.0 size=       1KiB time=00:00:02.53 bitrate=   2.3kbits/s speed=0.128x elapsed=0:00:19.80    \nframe=   83 fps=4.1 q=62.0 size=       1KiB time=00:00:02.66 bitrate=   2.1kbits/s speed=0.131x elapsed=0:00:20.33    \nframe=   89 fps=4.3 q=56.0 size=       1KiB time=00:00:02.93 bitrate=   1.9kbits/s speed=0.14x elapsed=0:00:20.90    \nframe=   93 fps=4.3 q=58.0 size=       1KiB time=00:00:03.06 bitrate=   1.9kbits/s speed=0.142x elapsed=0:00:21.53    \nframe=   99 fps=4.5 q=60.0 size=       1KiB time=00:00:03.26 bitrate=   1.7kbits/s speed=0.148x elapsed=0:00:22.12    \nframe=  105 fps=4.6 q=58.0 size=       1KiB time=00:00:03.46 bitrate=   1.6kbits/s speed=0.153x elapsed=0:00:22.63    \nframe=  105 fps=4.5 q=58.0 size=       1KiB time=00:00:03.46 bitrate=   1.6kbits/s speed=0.15x elapsed=0:00:23.16    \nframe=  109 fps=4.6 q=54.0 size=       1KiB time=00:00:03.60 bitrate=   1.6kbits/s speed=0.152x elapsed=0:00:23.71    \nframe=  113 fps=4.7 q=53.0 size=       1KiB time=00:00:03.73 bitrate=   1.5kbits/s speed=0.154x elapsed=0:00:24.23    \nframe=  119 fps=4.8 q=58.0 size=       1KiB time=00:00:03.93 bitrate=   1.5kbits/s speed=0.159x elapsed=0:00:24.75    \nframe=  121 fps=4.8 q=54.0 size=       1KiB time=00:00:04.00 bitrate=   1.4kbits/s speed=0.158x elapsed=0:00:25.27    \nframe=  125 fps=4.8 q=58.0 size=       1KiB time=00:00:04.13 bitrate=   1.4kbits/s speed=0.16x elapsed=0:00:25.80    \nframe=  133 fps=5.1 q=60.0 size=       1KiB time=00:00:04.40 bitrate=   1.3kbits/s speed=0.167x elapsed=0:00:26.31    \nframe=  137 fps=5.1 q=58.0 size=       1KiB time=00:00:04.53 bitrate=   1.3kbits/s speed=0.169x elapsed=0:00:26.83    \nframe=  141 fps=5.2 q=60.0 size=       1KiB time=00:00:04.66 bitrate=   1.2kbits/s speed=0.171x elapsed=0:00:27.35    \n[out#0/matroska @ 0000021e1c541200] video:638KiB audio:0KiB subtitle:0KiB other streams:0KiB global headers:0KiB muxing overhead: 0.221345%\nframe=  150 fps=5.4 q=60.0 Lsize=     639KiB time=00:00:04.96 bitrate=1053.9kbits/s speed=0.18x elapsed=0:00:27.62    \n",
  "seconds": 28.304508924484253,
  "probe_out": {}
}